<svg width="50" height="50" viewBox="0 0 50 50" fill="none" xmlns="http://www.w3.org/2000/svg">
<path d="M25 6.25C22.5136 8.7364 21.1168 12.1087 21.1168 15.625C21.1168 19.1413 22.5136 22.5136 25 25C27.4864 27.4864 30.8587 28.8833 34.375 28.8833C37.8913 28.8833 41.2636 27.4864 43.75 25C43.75 28.7084 42.6503 32.3335 40.5901 35.4169C38.5298 38.5004 35.6014 40.9036 32.1753 42.3227C28.7492 43.7419 24.9792 44.1132 21.3421 43.3897C17.7049 42.6663 14.364 40.8805 11.7418 38.2582C9.11952 35.636 7.33376 32.2951 6.61028 28.6579C5.88681 25.0208 6.25812 21.2508 7.67727 17.8247C9.09641 14.3986 11.4996 11.4702 14.5831 9.40995C17.6665 7.34967 21.2916 6.25 25 6.25Z" stroke="#878787" stroke-width="2" stroke-linecap="round" stroke-linejoin="round"/>
</svg>
